<?xml version="1.0" encoding="UTF-8"?>
<svg width="197px" height="149px" viewBox="0 0 197 149" version="1.1" xmlns="http://www.w3.org/2000/svg" xmlns:xlink="http://www.w3.org/1999/xlink">
    <title>Tumo-Team</title>
    <g id="页面-1" stroke="none" stroke-width="1" fill="none" fill-rule="evenodd">
        <text id="Tumo-Team" font-family="Menlo-BoldItalic, Menlo" font-size="33" font-style="italic" font-weight="bold" fill="#0091FF">
            <tspan x="9" y="141">Tumo Team</tspan>
        </text>
        <g id="code" transform="translate(14.000000, 9.000000)" fill="#409EFF" fill-rule="nonzero">
            <path d="M40.5063006,86 C39.3541854,86 38.2020702,85.5317388 37.319982,84.6047726 L1.31638164,46.3793649 C-0.438793879,44.5158763 -0.438793879,41.4865128 1.31638164,39.6230241 L37.319982,1.39761647 C39.0751575,-0.465872156 41.9284428,-0.465872156 43.6836184,1.39761647 C45.4387939,3.26110509 45.4387939,6.29046865 43.6836184,8.15395727 L10.8663366,42.9964164 L43.6836184,77.8388755 C45.4387939,79.7023641 45.4387939,82.7317276 43.6836184,84.5952163 C42.8015302,85.5317388 41.6494149,85.9904436 40.4972997,85.9904436 L40.5063006,86 Z" id="路径"></path>
            <path d="M129.5027,85.9904436 C128.350585,85.9904436 127.19847,85.5221824 126.316382,84.5952163 C124.561206,82.7317276 124.561206,79.7023641 126.316382,77.8388755 L159.133663,42.9964164 L126.316382,8.15395727 C124.561206,6.29046865 124.561206,3.26110509 126.316382,1.39761647 C128.071557,-0.465872156 130.924842,-0.465872156 132.680018,1.39761647 L168.683618,39.6230241 C170.438794,41.4865128 170.438794,44.5158763 168.683618,46.3793649 L132.680018,84.6047726 C131.79793,85.5412951 130.645815,86 129.493699,86 L129.5027,85.9904436 Z" id="路径"></path>
            <path d="M63.4990226,86 C62.679987,86 61.8609514,85.7611077 61.113919,85.2737673 C59.0078275,83.878636 58.3687998,80.9259265 59.6828568,78.6898942 L104.684812,2.24434283 C105.998869,0.00831045129 108.77999,-0.670143817 110.886081,0.724987495 C112.992172,2.12011881 113.6312,5.07282823 112.317143,7.3088606 L67.3151884,83.7544119 C66.4601512,85.2068774 64.9930875,86 63.4990226,86 Z" id="路径"></path>
        </g>
    </g>
</svg>